<?xml version="1.0" encoding="UTF-8"?>
<!DOCTYPE svg PUBLIC "-//W3C//DTD SVG 1.1//EN" "http://www.w3.org/Graphics/SVG/1.1/DTD/svg11.dtd">
<svg xmlns="http://www.w3.org/2000/svg" version="1.1" width="195px" height="195px" style="shape-rendering:geometricPrecision; text-rendering:geometricPrecision; image-rendering:optimizeQuality; fill-rule:evenodd; clip-rule:evenodd" xmlns:xlink="http://www.w3.org/1999/xlink">
<g><path style="opacity:0.999" fill="#245195" d="M 73.5,-0.5 C 81.1667,-0.5 88.8333,-0.5 96.5,-0.5C 96.5,0.833333 96.5,2.16667 96.5,3.5C 94.901,3.23219 93.5676,3.56552 92.5,4.5C 92.5,5.83333 92.5,7.16667 92.5,8.5C 90.8333,8.5 89.1667,8.5 87.5,8.5C 87.5,11.5 87.5,14.5 87.5,17.5C 85.8333,17.5 84.1667,17.5 82.5,17.5C 82.5,20.8333 82.5,24.1667 82.5,27.5C 81.1667,27.5 79.8333,27.5 78.5,27.5C 78.5,28.8333 78.5,30.1667 78.5,31.5C 76.8333,31.5 75.1667,31.5 73.5,31.5C 73.5,34.8333 73.5,38.1667 73.5,41.5C 71.8333,41.5 70.1667,41.5 68.5,41.5C 68.5,42.8333 68.5,44.1667 68.5,45.5C 67.1667,45.5 65.8333,45.5 64.5,45.5C 64.5,51.8333 64.5,58.1667 64.5,64.5C 62.8333,64.5 61.1667,64.5 59.5,64.5C 59.5,69.1667 59.5,73.8333 59.5,78.5C 58.1667,78.5 56.8333,78.5 55.5,78.5C 55.5,81.5 55.5,84.5 55.5,87.5C 53.8333,87.5 52.1667,87.5 50.5,87.5C 50.5,89.1667 50.5,90.8333 50.5,92.5C 48.8333,92.5 47.1667,92.5 45.5,92.5C 45.5,103.167 45.5,113.833 45.5,124.5C 44.1667,124.5 42.8333,124.5 41.5,124.5C 41.5,129.167 41.5,133.833 41.5,138.5C 42.8333,138.5 44.1667,138.5 45.5,138.5C 45.5,155.833 45.5,173.167 45.5,190.5C 33.1667,190.5 20.8333,190.5 8.5,190.5C 8.5,187.167 8.5,183.833 8.5,180.5C 14.5,180.5 20.5,180.5 26.5,180.5C 26.5,179.167 26.5,177.833 26.5,176.5C 23.5,176.5 20.5,176.5 17.5,176.5C 17.5,174.833 17.5,173.167 17.5,171.5C 15.8333,171.5 14.1667,171.5 12.5,171.5C 12.5,168.167 12.5,164.833 12.5,161.5C 14.1667,161.5 15.8333,161.5 17.5,161.5C 17.5,160.167 17.5,158.833 17.5,157.5C 14.5,157.5 11.5,157.5 8.5,157.5C 8.5,154.5 8.5,151.5 8.5,148.5C 6.83333,148.5 5.16667,148.5 3.5,148.5C 3.5,145.167 3.5,141.833 3.5,138.5C 5.16667,138.5 6.83333,138.5 8.5,138.5C 8.5,137.167 8.5,135.833 8.5,134.5C 6.83333,134.5 5.16667,134.5 3.5,134.5C 3.5,129.833 3.5,125.167 3.5,120.5C 2.16667,120.5 0.833333,120.5 -0.5,120.5C -0.5,112.5 -0.5,104.5 -0.5,96.5C 2.5,96.5 5.5,96.5 8.5,96.5C 8.5,94.8333 8.5,93.1667 8.5,91.5C 9.83333,91.5 11.1667,91.5 12.5,91.5C 12.5,88.8333 12.5,86.1667 12.5,83.5C 8.16667,83.5 3.83333,83.5 -0.5,83.5C -0.5,80.1667 -0.5,76.8333 -0.5,73.5C 0.833333,73.5 2.16667,73.5 3.5,73.5C 3.5,68.8333 3.5,64.1667 3.5,59.5C 9.83333,59.5 16.1667,59.5 22.5,59.5C 22.5,56.8333 22.5,54.1667 22.5,51.5C 16.1667,51.5 9.83333,51.5 3.5,51.5C 3.5,47.8333 3.5,44.1667 3.5,40.5C 5.16667,40.5 6.83333,40.5 8.5,40.5C 8.5,39.1667 8.5,37.8333 8.5,36.5C 11.5,36.5 14.5,36.5 17.5,36.5C 17.5,34.8333 17.5,33.1667 17.5,31.5C 20.5,31.5 23.5,31.5 26.5,31.5C 26.5,28.8333 26.5,26.1667 26.5,23.5C 25.1667,23.5 23.8333,23.5 22.5,23.5C 22.5,19.8333 22.5,16.1667 22.5,12.5C 23.8333,12.5 25.1667,12.5 26.5,12.5C 26.5,11.1667 26.5,9.83333 26.5,8.5C 33.1667,8.5 39.8333,8.5 46.5,8.5C 46.5,9.83333 46.5,11.1667 46.5,12.5C 47.8333,12.5 49.1667,12.5 50.5,12.5C 50.5,11.1667 50.5,9.83333 50.5,8.5C 53.5,8.5 56.5,8.5 59.5,8.5C 59.5,6.83333 59.5,5.16667 59.5,3.5C 64.1667,3.5 68.8333,3.5 73.5,3.5C 73.5,2.16667 73.5,0.833333 73.5,-0.5 Z"/></g>
<g><path style="opacity:0.999" fill="#f8f9fa" d="M 97.5,-0.5 C 101.833,-0.5 106.167,-0.5 110.5,-0.5C 110.5,1.16667 110.5,2.83333 110.5,4.5C 113.833,4.5 117.167,4.5 120.5,4.5C 120.5,5.83333 120.5,7.16667 120.5,8.5C 123.5,8.5 126.5,8.5 129.5,8.5C 129.5,10.1667 129.5,11.8333 129.5,13.5C 132.5,13.5 135.5,13.5 138.5,13.5C 138.5,15.1667 138.5,16.8333 138.5,18.5C 140.167,18.5 141.833,18.5 143.5,18.5C 143.5,19.8333 143.5,21.1667 143.5,22.5C 146.5,22.5 149.5,22.5 152.5,22.5C 152.5,24.1667 152.5,25.8333 152.5,27.5C 155.833,27.5 159.167,27.5 162.5,27.5C 162.5,28.8333 162.5,30.1667 162.5,31.5C 163.833,31.5 165.167,31.5 166.5,31.5C 166.5,34.8333 166.5,38.1667 166.5,41.5C 165.167,41.5 163.833,41.5 162.5,41.5C 162.5,46.1667 162.5,50.8333 162.5,55.5C 160.833,55.5 159.167,55.5 157.5,55.5C 157.5,58.5 157.5,61.5 157.5,64.5C 155.833,64.5 154.167,64.5 152.5,64.5C 152.5,67.5 152.5,70.5 152.5,73.5C 151.167,73.5 149.833,73.5 148.5,73.5C 148.5,76.8333 148.5,80.1667 148.5,83.5C 146.833,83.5 145.167,83.5 143.5,83.5C 143.5,86.5 143.5,89.5 143.5,92.5C 141.833,92.5 140.167,92.5 138.5,92.5C 138.5,97.1667 138.5,101.833 138.5,106.5C 137.167,106.5 135.833,106.5 134.5,106.5C 134.5,109.5 134.5,112.5 134.5,115.5C 132.833,115.5 131.167,115.5 129.5,115.5C 129.5,120.167 129.5,124.833 129.5,129.5C 127.833,129.5 126.167,129.5 124.5,129.5C 124.5,132.5 124.5,135.5 124.5,138.5C 123.167,138.5 121.833,138.5 120.5,138.5C 120.5,140.167 120.5,141.833 120.5,143.5C 118.833,143.5 117.167,143.5 115.5,143.5C 115.5,146.5 115.5,149.5 115.5,152.5C 114.167,152.5 112.833,152.5 111.5,152.5C 111.5,154.167 111.5,155.833 111.5,157.5C 108.167,157.5 104.833,157.5 101.5,157.5C 101.5,159.167 101.5,160.833 101.5,162.5C 100.167,162.5 98.8333,162.5 97.5,162.5C 97.5,163.833 97.5,165.167 97.5,166.5C 95.8333,166.5 94.1667,166.5 92.5,166.5C 92.5,168.167 92.5,169.833 92.5,171.5C 90.8333,171.5 89.1667,171.5 87.5,171.5C 87.5,173.167 87.5,174.833 87.5,176.5C 86.1667,176.5 84.8333,176.5 83.5,176.5C 83.5,177.833 83.5,179.167 83.5,180.5C 80.1667,180.5 76.8333,180.5 73.5,180.5C 73.5,182.167 73.5,183.833 73.5,185.5C 70.5,185.5 67.5,185.5 64.5,185.5C 64.5,187.167 64.5,188.833 64.5,190.5C 58.1667,190.5 51.8333,190.5 45.5,190.5C 45.5,173.167 45.5,155.833 45.5,138.5C 44.1667,138.5 42.8333,138.5 41.5,138.5C 41.5,133.833 41.5,129.167 41.5,124.5C 42.8333,124.5 44.1667,124.5 45.5,124.5C 45.5,113.833 45.5,103.167 45.5,92.5C 47.1667,92.5 48.8333,92.5 50.5,92.5C 50.5,90.8333 50.5,89.1667 50.5,87.5C 52.1667,87.5 53.8333,87.5 55.5,87.5C 55.5,84.5 55.5,81.5 55.5,78.5C 56.8333,78.5 58.1667,78.5 59.5,78.5C 59.5,73.8333 59.5,69.1667 59.5,64.5C 61.1667,64.5 62.8333,64.5 64.5,64.5C 64.5,58.1667 64.5,51.8333 64.5,45.5C 65.8333,45.5 67.1667,45.5 68.5,45.5C 68.5,44.1667 68.5,42.8333 68.5,41.5C 70.1667,41.5 71.8333,41.5 73.5,41.5C 73.5,38.1667 73.5,34.8333 73.5,31.5C 75.1667,31.5 76.8333,31.5 78.5,31.5C 78.5,30.1667 78.5,28.8333 78.5,27.5C 79.8333,27.5 81.1667,27.5 82.5,27.5C 82.5,24.1667 82.5,20.8333 82.5,17.5C 84.1667,17.5 85.8333,17.5 87.5,17.5C 87.5,14.5 87.5,11.5 87.5,8.5C 89.1667,8.5 90.8333,8.5 92.5,8.5C 92.5,7.16667 92.5,5.83333 92.5,4.5C 94.1667,4.5 95.8333,4.5 97.5,4.5C 97.5,2.83333 97.5,1.16667 97.5,-0.5 Z"/></g>
<g><path style="opacity:0.999" fill="#245195" d="M 111.5,-0.5 C 114.5,-0.5 117.5,-0.5 120.5,-0.5C 120.5,0.833333 120.5,2.16667 120.5,3.5C 117.5,3.5 114.5,3.5 111.5,3.5C 111.5,2.16667 111.5,0.833333 111.5,-0.5 Z"/></g>
<g><path style="opacity:0.996" fill="#869ec4" d="M 96.5,-0.5 C 96.8333,-0.5 97.1667,-0.5 97.5,-0.5C 97.5,1.16667 97.5,2.83333 97.5,4.5C 95.8333,4.5 94.1667,4.5 92.5,4.5C 93.5676,3.56552 94.901,3.23219 96.5,3.5C 96.5,2.16667 96.5,0.833333 96.5,-0.5 Z"/></g>
<g><path style="opacity:0.996" fill="#91a6c9" d="M 110.5,-0.5 C 110.833,-0.5 111.167,-0.5 111.5,-0.5C 111.5,0.833333 111.5,2.16667 111.5,3.5C 114.5,3.5 117.5,3.5 120.5,3.5C 120.5,3.83333 120.5,4.16667 120.5,4.5C 117.167,4.5 113.833,4.5 110.5,4.5C 110.5,2.83333 110.5,1.16667 110.5,-0.5 Z"/></g>
<g><path style="opacity:0.999" fill="#040302" d="M 78.5,46.5 C 80.1667,46.5 81.8333,46.5 83.5,46.5C 83.5,43.1667 83.5,39.8333 83.5,36.5C 84.8333,36.5 86.1667,36.5 87.5,36.5C 87.5,34.8333 87.5,33.1667 87.5,31.5C 89.1667,31.5 90.8333,31.5 92.5,31.5C 92.5,28.5 92.5,25.5 92.5,22.5C 93.8333,22.5 95.1667,22.5 96.5,22.5C 96.5,19.5 96.5,16.5 96.5,13.5C 98.1667,13.5 99.8333,13.5 101.5,13.5C 101.5,11.8333 101.5,10.1667 101.5,8.5C 104.833,8.5 108.167,8.5 111.5,8.5C 111.5,10.1667 111.5,11.8333 111.5,13.5C 114.5,13.5 117.5,13.5 120.5,13.5C 120.5,14.8333 120.5,16.1667 120.5,17.5C 123.5,17.5 126.5,17.5 129.5,17.5C 129.5,19.1667 129.5,20.8333 129.5,22.5C 132.5,22.5 135.5,22.5 138.5,22.5C 138.5,24.1667 138.5,25.8333 138.5,27.5C 141.833,27.5 145.167,27.5 148.5,27.5C 148.5,30.5 148.5,33.5 148.5,36.5C 149.833,36.5 151.167,36.5 152.5,36.5C 152.5,39.8333 152.5,43.1667 152.5,46.5C 151.167,46.5 149.833,46.5 148.5,46.5C 148.5,49.5 148.5,52.5 148.5,55.5C 146.833,55.5 145.167,55.5 143.5,55.5C 143.5,58.5 143.5,61.5 143.5,64.5C 141.833,64.5 140.167,64.5 138.5,64.5C 138.5,67.5 138.5,70.5 138.5,73.5C 137.167,73.5 135.833,73.5 134.5,73.5C 134.5,76.8333 134.5,80.1667 134.5,83.5C 132.833,83.5 131.167,83.5 129.5,83.5C 129.5,86.5 129.5,89.5 129.5,92.5C 127.833,92.5 126.167,92.5 124.5,92.5C 124.5,97.1667 124.5,101.833 124.5,106.5C 123.167,106.5 121.833,106.5 120.5,106.5C 120.5,111.167 120.5,115.833 120.5,120.5C 118.833,120.5 117.167,120.5 115.5,120.5C 115.5,125.167 115.5,129.833 115.5,134.5C 114.167,134.5 112.833,134.5 111.5,134.5C 111.5,137.5 111.5,140.5 111.5,143.5C 108.167,143.5 104.833,143.5 101.5,143.5C 101.5,145.167 101.5,146.833 101.5,148.5C 100.167,148.5 98.8333,148.5 97.5,148.5C 97.5,149.833 97.5,151.167 97.5,152.5C 95.8333,152.5 94.1667,152.5 92.5,152.5C 92.5,154.167 92.5,155.833 92.5,157.5C 90.8333,157.5 89.1667,157.5 87.5,157.5C 87.5,159.167 87.5,160.833 87.5,162.5C 86.1667,162.5 84.8333,162.5 83.5,162.5C 83.5,163.833 83.5,165.167 83.5,166.5C 81.8333,166.5 80.1667,166.5 78.5,166.5C 78.5,168.167 78.5,169.833 78.5,171.5C 76.8333,171.5 75.1667,171.5 73.5,171.5C 73.5,173.167 73.5,174.833 73.5,176.5C 72.1667,176.5 70.8333,176.5 69.5,176.5C 69.5,177.833 69.5,179.167 69.5,180.5C 64.8333,180.5 60.1667,180.5 55.5,180.5C 55.5,155.833 55.5,131.167 55.5,106.5C 56.8333,106.5 58.1667,106.5 59.5,106.5C 59.5,101.833 59.5,97.1667 59.5,92.5C 61.1667,92.5 62.8333,92.5 64.5,92.5C 64.5,87.8333 64.5,83.1667 64.5,78.5C 66.1667,78.5 67.8333,78.5 69.5,78.5C 69.5,73.8333 69.5,69.1667 69.5,64.5C 70.8333,64.5 72.1667,64.5 73.5,64.5C 73.5,59.8333 73.5,55.1667 73.5,50.5C 75.1667,50.5 76.8333,50.5 78.5,50.5C 78.5,49.1667 78.5,47.8333 78.5,46.5 Z"/></g>
<g><path style="opacity:0.996" fill="#96aacc" d="M 138.5,13.5 C 139.434,14.5676 139.768,15.901 139.5,17.5C 141.099,17.2322 142.432,17.5655 143.5,18.5C 141.833,18.5 140.167,18.5 138.5,18.5C 138.5,16.8333 138.5,15.1667 138.5,13.5 Z"/></g>
<g><path style="opacity:0.999" fill="#d278b5" d="M 106.5,27.5 C 109.5,27.5 112.5,27.5 115.5,27.5C 115.5,28.8333 115.5,30.1667 115.5,31.5C 118.833,31.5 122.167,31.5 125.5,31.5C 125.5,33.1667 125.5,34.8333 125.5,36.5C 128.5,36.5 131.5,36.5 134.5,36.5C 134.5,38.1667 134.5,39.8333 134.5,41.5C 135.833,41.5 137.167,41.5 138.5,41.5C 138.5,44.5 138.5,47.5 138.5,50.5C 133.833,50.5 129.167,50.5 124.5,50.5C 124.5,49.1667 124.5,47.8333 124.5,46.5C 121.5,46.5 118.5,46.5 115.5,46.5C 115.5,44.8333 115.5,43.1667 115.5,41.5C 112.5,41.5 109.5,41.5 106.5,41.5C 106.5,36.8333 106.5,32.1667 106.5,27.5 Z"/></g>
<g><path style="opacity:0.998" fill="#245195" d="M 129.5,-0.5 C 132.833,-0.5 136.167,-0.5 139.5,-0.5C 139.5,0.833333 139.5,2.16667 139.5,3.5C 140.833,3.5 142.167,3.5 143.5,3.5C 143.5,6.5 143.5,9.5 143.5,12.5C 154.5,12.5 165.5,12.5 176.5,12.5C 176.5,14.1667 176.5,15.8333 176.5,17.5C 178.167,17.5 179.833,17.5 181.5,17.5C 181.5,20.8333 181.5,24.1667 181.5,27.5C 176.833,27.5 172.167,27.5 167.5,27.5C 167.5,28.8333 167.5,30.1667 167.5,31.5C 168.833,31.5 170.167,31.5 171.5,31.5C 171.5,33.1667 171.5,34.8333 171.5,36.5C 173.167,36.5 174.833,36.5 176.5,36.5C 176.5,37.8333 176.5,39.1667 176.5,40.5C 179.5,40.5 182.5,40.5 185.5,40.5C 185.5,42.1667 185.5,43.8333 185.5,45.5C 187.167,45.5 188.833,45.5 190.5,45.5C 190.5,48.8333 190.5,52.1667 190.5,55.5C 188.833,55.5 187.167,55.5 185.5,55.5C 185.5,56.8333 185.5,58.1667 185.5,59.5C 187.167,59.5 188.833,59.5 190.5,59.5C 190.5,64.1667 190.5,68.8333 190.5,73.5C 191.833,73.5 193.167,73.5 194.5,73.5C 194.5,83.1667 194.5,92.8333 194.5,102.5C 190.167,102.5 185.833,102.5 181.5,102.5C 181.5,105.167 181.5,107.833 181.5,110.5C 182.833,110.5 184.167,110.5 185.5,110.5C 185.5,112.5 185.5,114.5 185.5,116.5C 184.167,116.5 182.833,116.5 181.5,116.5C 181.5,119.167 181.5,121.833 181.5,124.5C 184.5,124.5 187.5,124.5 190.5,124.5C 190.5,132.5 190.5,140.5 190.5,148.5C 187.5,148.5 184.5,148.5 181.5,148.5C 181.5,150.167 181.5,151.833 181.5,153.5C 179.833,153.5 178.167,153.5 176.5,153.5C 176.5,154.5 176.5,155.5 176.5,156.5C 179.5,156.5 182.5,156.5 185.5,156.5C 185.5,160.167 185.5,163.833 185.5,167.5C 182.5,167.5 179.5,167.5 176.5,167.5C 176.5,168.833 176.5,170.167 176.5,171.5C 173.167,171.5 169.833,171.5 166.5,171.5C 166.5,170.167 166.5,168.833 166.5,167.5C 165.167,167.5 163.833,167.5 162.5,167.5C 162.5,168.833 162.5,170.167 162.5,171.5C 160.833,171.5 159.167,171.5 157.5,171.5C 157.5,172.833 157.5,174.167 157.5,175.5C 160.833,175.5 164.167,175.5 167.5,175.5C 167.5,180.5 167.5,185.5 167.5,190.5C 151.5,190.5 135.5,190.5 119.5,190.5C 119.5,188.833 119.5,187.167 119.5,185.5C 116.833,185.5 114.167,185.5 111.5,185.5C 111.5,187.167 111.5,188.833 111.5,190.5C 108.5,190.5 105.5,190.5 102.5,190.5C 102.5,191.833 102.5,193.167 102.5,194.5C 92.8333,194.5 83.1667,194.5 73.5,194.5C 73.5,193.167 73.5,191.833 73.5,190.5C 70.5,190.5 67.5,190.5 64.5,190.5C 64.5,188.833 64.5,187.167 64.5,185.5C 67.5,185.5 70.5,185.5 73.5,185.5C 73.5,183.833 73.5,182.167 73.5,180.5C 76.8333,180.5 80.1667,180.5 83.5,180.5C 83.5,179.167 83.5,177.833 83.5,176.5C 84.8333,176.5 86.1667,176.5 87.5,176.5C 87.5,174.833 87.5,173.167 87.5,171.5C 89.1667,171.5 90.8333,171.5 92.5,171.5C 92.5,169.833 92.5,168.167 92.5,166.5C 94.1667,166.5 95.8333,166.5 97.5,166.5C 97.5,165.167 97.5,163.833 97.5,162.5C 98.8333,162.5 100.167,162.5 101.5,162.5C 101.5,160.833 101.5,159.167 101.5,157.5C 104.833,157.5 108.167,157.5 111.5,157.5C 111.5,155.833 111.5,154.167 111.5,152.5C 112.833,152.5 114.167,152.5 115.5,152.5C 115.5,149.5 115.5,146.5 115.5,143.5C 117.167,143.5 118.833,143.5 120.5,143.5C 120.5,141.833 120.5,140.167 120.5,138.5C 121.833,138.5 123.167,138.5 124.5,138.5C 124.5,135.5 124.5,132.5 124.5,129.5C 126.167,129.5 127.833,129.5 129.5,129.5C 129.5,124.833 129.5,120.167 129.5,115.5C 131.167,115.5 132.833,115.5 134.5,115.5C 134.5,112.5 134.5,109.5 134.5,106.5C 135.833,106.5 137.167,106.5 138.5,106.5C 138.5,101.833 138.5,97.1667 138.5,92.5C 140.167,92.5 141.833,92.5 143.5,92.5C 143.5,89.5 143.5,86.5 143.5,83.5C 145.167,83.5 146.833,83.5 148.5,83.5C 148.5,80.1667 148.5,76.8333 148.5,73.5C 149.833,73.5 151.167,73.5 152.5,73.5C 152.5,70.5 152.5,67.5 152.5,64.5C 154.167,64.5 155.833,64.5 157.5,64.5C 157.5,61.5 157.5,58.5 157.5,55.5C 159.167,55.5 160.833,55.5 162.5,55.5C 162.5,50.8333 162.5,46.1667 162.5,41.5C 163.833,41.5 165.167,41.5 166.5,41.5C 166.5,38.1667 166.5,34.8333 166.5,31.5C 165.167,31.5 163.833,31.5 162.5,31.5C 162.5,30.1667 162.5,28.8333 162.5,27.5C 159.167,27.5 155.833,27.5 152.5,27.5C 152.5,25.8333 152.5,24.1667 152.5,22.5C 149.5,22.5 146.5,22.5 143.5,22.5C 143.5,21.1667 143.5,19.8333 143.5,18.5C 142.432,17.5655 141.099,17.2322 139.5,17.5C 139.768,15.901 139.434,14.5676 138.5,13.5C 135.5,13.5 132.5,13.5 129.5,13.5C 129.5,11.8333 129.5,10.1667 129.5,8.5C 126.5,8.5 123.5,8.5 120.5,8.5C 120.5,7.16667 120.5,5.83333 120.5,4.5C 120.5,4.16667 120.5,3.83333 120.5,3.5C 123.5,3.5 126.5,3.5 129.5,3.5C 129.5,2.16667 129.5,0.833333 129.5,-0.5 Z"/></g>
<g><path style="opacity:0.996" fill="#606060" d="M 83.5,36.5 C 83.5,39.8333 83.5,43.1667 83.5,46.5C 81.8333,46.5 80.1667,46.5 78.5,46.5C 79.5676,45.5655 80.901,45.2322 82.5,45.5C 82.19,42.2869 82.5233,39.2869 83.5,36.5 Z"/></g>
<g><path style="opacity:1" fill="#d86d24" d="M 92.5,50.5 C 97.1667,50.5 101.833,50.5 106.5,50.5C 106.5,53.5 106.5,56.5 106.5,59.5C 104.833,59.5 103.167,59.5 101.5,59.5C 101.5,62.8333 101.5,66.1667 101.5,69.5C 100.167,69.5 98.8333,69.5 97.5,69.5C 97.5,72.5 97.5,75.5 97.5,78.5C 95.8333,78.5 94.1667,78.5 92.5,78.5C 92.5,83.1667 92.5,87.8333 92.5,92.5C 90.8333,92.5 89.1667,92.5 87.5,92.5C 87.5,97.1667 87.5,101.833 87.5,106.5C 86.1667,106.5 84.8333,106.5 83.5,106.5C 83.5,108.167 83.5,109.833 83.5,111.5C 81.8333,111.5 80.1667,111.5 78.5,111.5C 78.5,112.833 78.5,114.167 78.5,115.5C 75.1667,115.5 71.8333,115.5 68.5,115.5C 68.5,112.5 68.5,109.5 68.5,106.5C 70.1667,106.5 71.8333,106.5 73.5,106.5C 73.5,103.167 73.5,99.8333 73.5,96.5C 75.1667,96.5 76.8333,96.5 78.5,96.5C 78.5,91.8333 78.5,87.1667 78.5,82.5C 79.8333,82.5 81.1667,82.5 82.5,82.5C 82.5,79.5 82.5,76.5 82.5,73.5C 84.1667,73.5 85.8333,73.5 87.5,73.5C 87.5,70.5 87.5,67.5 87.5,64.5C 89.1667,64.5 90.8333,64.5 92.5,64.5C 92.5,59.8333 92.5,55.1667 92.5,50.5 Z"/></g>
<g><path style="opacity:1" fill="#d66c24" d="M 101.5,124.5 C 100.167,124.5 98.8333,124.5 97.5,124.5C 97.7678,122.901 97.4345,121.568 96.5,120.5C 95.1667,120.5 93.8333,120.5 92.5,120.5C 92.5,117.167 92.5,113.833 92.5,110.5C 93.8333,110.5 95.1667,110.5 96.5,110.5C 96.5,109.167 96.5,107.833 96.5,106.5C 98.1667,106.5 99.8333,106.5 101.5,106.5C 101.5,101.833 101.5,97.1667 101.5,92.5C 103.167,92.5 104.833,92.5 106.5,92.5C 106.5,89.1667 106.5,85.8333 106.5,82.5C 107.833,82.5 109.167,82.5 110.5,82.5C 110.5,79.5 110.5,76.5 110.5,73.5C 112.167,73.5 113.833,73.5 115.5,73.5C 115.5,68.8333 115.5,64.1667 115.5,59.5C 117.167,59.5 118.833,59.5 120.5,59.5C 120.5,58.1667 120.5,56.8333 120.5,55.5C 122.167,55.5 123.833,55.5 125.5,55.5C 125.5,61.5 125.5,67.5 125.5,73.5C 123.833,73.5 122.167,73.5 120.5,73.5C 120.5,76.8333 120.5,80.1667 120.5,83.5C 118.833,83.5 117.167,83.5 115.5,83.5C 115.5,86.5 115.5,89.5 115.5,92.5C 114.167,92.5 112.833,92.5 111.5,92.5C 111.5,95.5 111.5,98.5 111.5,101.5C 109.833,101.5 108.167,101.5 106.5,101.5C 106.5,106.167 106.5,110.833 106.5,115.5C 104.833,115.5 103.167,115.5 101.5,115.5C 101.5,118.5 101.5,121.5 101.5,124.5 Z"/></g>
<g><path style="opacity:0.996" fill="#6f3813" d="M 96.5,120.5 C 97.4345,121.568 97.7678,122.901 97.5,124.5C 98.8333,124.5 100.167,124.5 101.5,124.5C 100.081,125.451 98.4147,125.784 96.5,125.5C 96.5,123.833 96.5,122.167 96.5,120.5 Z"/></g>
<g><path style="opacity:0.999" fill="#d59d64" d="M 64.5,129.5 C 70.8333,129.5 77.1667,129.5 83.5,129.5C 83.5,131.167 83.5,132.833 83.5,134.5C 86.5,134.5 89.5,134.5 92.5,134.5C 92.5,137.5 92.5,140.5 92.5,143.5C 89.5,143.5 86.5,143.5 83.5,143.5C 83.5,145.167 83.5,146.833 83.5,148.5C 81.8333,148.5 80.1667,148.5 78.5,148.5C 78.5,149.833 78.5,151.167 78.5,152.5C 76.8333,152.5 75.1667,152.5 73.5,152.5C 73.5,151.167 73.5,149.833 73.5,148.5C 72.1667,148.5 70.8333,148.5 69.5,148.5C 69.5,146.833 69.5,145.167 69.5,143.5C 67.8333,143.5 66.1667,143.5 64.5,143.5C 64.5,138.833 64.5,134.167 64.5,129.5 Z"/></g>
</svg>
